<svg width="35" height="35" viewBox="0 0 35 35" fill="none" xmlns="http://www.w3.org/2000/svg">
<path d="M11.3969 5.21356C10.0007 5.21183 8.63266 5.60623 7.45167 6.35096C6.27068 7.09568 5.32521 8.16018 4.72506 9.4208C4.12491 10.6814 3.89471 12.0864 4.0612 13.4727C4.22769 14.8589 4.78404 16.1694 5.66563 17.2521V17.2521L17.5 31.1427L29.2177 17.3906L29.276 17.325L29.3344 17.2521C29.9744 16.4803 30.4505 15.5863 30.7338 14.6246C31.0171 13.6628 31.1017 12.6534 30.9824 11.658C30.863 10.6625 30.5422 9.70171 30.0396 8.83419C29.5369 7.96667 28.8629 7.21057 28.0587 6.61194C27.2544 6.01331 26.3366 5.58468 25.3613 5.35218C24.3861 5.11967 23.3737 5.08815 22.3858 5.25953C21.3979 5.43092 20.4553 5.80162 19.6153 6.34906C18.7754 6.89649 18.0556 7.6092 17.5 8.44377C16.8249 7.44856 15.9163 6.63383 14.8537 6.07074C13.7911 5.50766 12.6068 5.21336 11.4042 5.21356H11.3969Z" stroke="black" stroke-width="0.729167" stroke-linecap="round" stroke-linejoin="round"/>
</svg>
