<svg width="24" height="24" viewBox="0 0 35 36" fill="none" xmlns="http://www.w3.org/2000/svg">
<path d="M31.0898 29.7065L22.2134 20.8301C23.5908 19.0493 24.3359 16.8721 24.3359 14.582C24.3359 11.8408 23.2661 9.27051 21.3315 7.33252C19.397 5.39453 16.8198 4.32812 14.082 4.32812C11.3442 4.32812 8.76709 5.39795 6.83252 7.33252C4.89453 9.26709 3.82812 11.8408 3.82812 14.582C3.82812 17.3198 4.89795 19.897 6.83252 21.8315C8.76709 23.7695 11.3408 24.8359 14.082 24.8359C16.3721 24.8359 18.5459 24.0908 20.3267 22.7168L29.2031 31.5898C29.2292 31.6159 29.2601 31.6365 29.2941 31.6506C29.3281 31.6647 29.3645 31.672 29.4014 31.672C29.4382 31.672 29.4746 31.6647 29.5087 31.6506C29.5427 31.6365 29.5736 31.6159 29.5996 31.5898L31.0898 30.103C31.1159 30.077 31.1365 30.0461 31.1506 30.0121C31.1647 29.9781 31.172 29.9416 31.172 29.9048C31.172 29.868 31.1647 29.8315 31.1506 29.7975C31.1365 29.7635 31.1159 29.7326 31.0898 29.7065V29.7065ZM19.4961 19.9961C18.0469 21.4419 16.126 22.2383 14.082 22.2383C12.0381 22.2383 10.1172 21.4419 8.66797 19.9961C7.22217 18.5469 6.42578 16.626 6.42578 14.582C6.42578 12.5381 7.22217 10.6138 8.66797 9.16797C10.1172 7.72217 12.0381 6.92578 14.082 6.92578C16.126 6.92578 18.0503 7.71875 19.4961 9.16797C20.9419 10.6172 21.7383 12.5381 21.7383 14.582C21.7383 16.626 20.9419 18.5503 19.4961 19.9961Z" fill="black"/>
</svg>
